<svg width="100%" height="100%" viewBox="0 0 126 88" fill="none" xmlns="http://www.w3.org/2000/svg">
<path d="M121.685 39.2201L113.143 35.5196L105.89 21.3902C103.93 17.5215 99.9531 15.1105 95.6124 15.1386H83.1223V11.6062C83.1223 5.21439 78.0254 0 71.6404 0H11.9345C5.5494 0 0.508558 5.24243 0.508558 11.6062V65.7126C0.452548 69.6094 3.56106 72.8053 7.45371 72.8613C7.48172 72.8613 7.50972 72.8613 7.56573 72.8613H9.04998C9.04998 73.1417 9.02197 73.2538 9.02197 73.422C8.99397 81.4399 15.463 87.9719 23.4724 87.9999C31.4817 88.0279 38.0068 81.552 38.0348 73.5342C38.0348 73.4781 38.0348 73.4501 38.0348 73.394C38.0348 73.1978 38.0348 73.1137 38.0068 72.8333H86.2588C86.2588 73.1137 86.2588 73.2258 86.2588 73.394C86.2308 81.4118 92.6999 87.9438 100.709 87.9719C108.719 87.9999 115.244 81.524 115.272 73.5061C115.272 73.4501 115.272 73.422 115.272 73.366C115.272 73.1697 115.272 73.0856 115.272 72.8053H118.884C122.777 72.8053 125.941 69.6374 125.941 65.7406C125.941 65.7126 125.941 65.6845 125.941 65.6285V45.7241C125.997 42.9767 124.317 40.3695 121.685 39.2201ZM23.5564 82.4211C18.6276 82.4211 14.6509 78.4402 14.6509 73.5061C14.6509 68.5721 18.6276 64.5912 23.5564 64.5912C28.4852 64.5912 32.4619 68.5721 32.4619 73.5061C32.4619 78.4122 28.4572 82.4211 23.5564 82.4211ZM77.5213 67.3105H36.6906C34.3382 62.1803 29.1853 58.9002 23.5564 58.9283C17.8994 58.9002 12.7746 62.1522 10.4222 67.3105H7.56573C6.69758 67.3105 6.10949 66.6377 6.10949 65.7687V51.3309H77.5213V67.3105ZM77.5213 11.6343V45.7241H6.10949V11.6343C6.10949 8.35424 8.65791 5.63491 11.9345 5.63491H71.6404C74.9169 5.66294 77.5493 8.35424 77.5213 11.6062V11.6343ZM83.1223 20.7735H95.6124C97.8247 20.7454 99.8971 21.9509 100.933 23.9414L106.534 34.7907H83.1223V20.7735ZM100.793 82.4211C95.8644 82.4211 91.8877 78.4402 91.8877 73.5061C91.8877 68.5721 95.8644 64.5912 100.793 64.5912C105.722 64.5912 109.699 68.5721 109.699 73.5061C109.699 78.4122 105.722 82.4211 100.793 82.4211ZM120.368 65.7687C120.368 66.6377 119.78 67.3105 118.912 67.3105H113.927C110.539 60.0496 101.913 56.9098 94.6602 60.3019C91.5797 61.7317 89.0873 64.2268 87.659 67.3105H83.1223V40.3975H110.567L119.472 44.3224C120.032 44.6027 120.396 45.2195 120.368 45.8362V65.7687Z" fill="white"/>
</svg>
